<svg xmlns="http://www.w3.org/2000/svg" xmlns:xlink="http://www.w3.org/1999/xlink" version="1.1" x="0px" y="0px" viewBox="0 0 100 125" style="enable-background:new 0 0 100 100;" xml:space="preserve"><path d="M46.04,63.76l-2.92-5.33c-0.05-0.1,0.01-0.22,0.13-0.23l6.76-0.39c0.33-0.02,0.42-0.46,0.12-0.61  c-2.11-1.03-4.31-1.8-6.59-2.29c-0.16-0.03-0.22-0.13-0.21-0.29c0.05-0.46,0.28-0.79,0.7-0.99c0.13-0.06,0.23-0.15,0.31-0.26  c1.14-1.54,2.39-2.99,3.74-4.35c0.22-0.22,0.06-0.58-0.24-0.57l-6.23,0.12c-0.16,0-0.23-0.08-0.2-0.23  c0.49-2.84,2.19-5.43,4.12-7.77c0.1-0.12,0.01-0.3-0.14-0.29l-6.74,0.43c-0.68,0.04-0.86-0.23-0.55-0.84  c1.68-3.29,3.99-6.06,6.91-8.33c0.11-0.09,0.09-0.26-0.03-0.33c-3.02-1.47-6.15-2.69-9.36-3.67c-0.26-0.08-0.28-0.44-0.04-0.55  c3.43-1.58,7-2.77,10.71-3.58c0.15-0.03,0.16-0.09,0.03-0.18c-2.97-2.03-6.08-3.83-9.33-5.4c-0.37-0.18-0.3-0.72,0.1-0.79  c4.83-0.9,9.69-1.15,14.59-0.74c0.18,0.01,0.28-0.2,0.16-0.33c-2.89-2.97-6.14-5.44-9.77-7.42c-0.35-0.19-0.21-0.71,0.18-0.71  c6.22,0.04,12.27,1.5,18.17,3.49c0.35,0.12,0.45,0.01,0.31-0.33C59.17,7.5,56.7,4.85,53.3,3.06c-0.27-0.14-0.17-0.56,0.14-0.56  c5.73,0.02,11.4,3.58,15.32,7.49c0.1,0.1,0.23,0.16,0.38,0.17c5.21,0.15,10.72,1.53,12.16,7.31c0.04,0.14,0.14,0.25,0.28,0.29  l4.37,1.11c0.17,0.04,0.28-0.02,0.34-0.18l0.64-1.8c0.07-0.2,0.2-0.25,0.38-0.15c2.31,1.22,3.87,1.94,4.95,3.82  c0.95,1.65,1.02,4.26,0.98,6.08c-0.01,0.67-0.86,0.97-1.29,0.45c-0.35-0.42-0.81-0.74-1.38-0.95c-0.17-0.06-0.36,0-0.47,0.14  l-1.46,2.03c-0.36,0.5-1.13,0.44-1.4-0.12l-1.32-2.74c-0.27-0.57-1.12-0.39-1.14,0.24l-0.04,1.05c0,0.2-0.11,0.31-0.31,0.32  c-2.09,0.18-1.64-1.68-3.12-2.15c-0.14-0.04-0.25,0-0.34,0.12l-1.22,1.78c-0.11,0.15-0.32,0.18-0.46,0.05  c-0.57-0.53-0.92-1.19-1.06-1.97c-0.03-0.16-0.14-0.28-0.3-0.32l-2.54-0.65c-0.19-0.05-0.39,0.09-0.41,0.28l-0.19,1.46  c-0.02,0.14,0.08,0.28,0.22,0.31l1.94,0.37c0.14,0.03,0.23,0.11,0.26,0.25l0.48,2.09c0.04,0.17,0.16,0.3,0.32,0.35  c0.92,0.31,1.8,0.23,2.63-0.22c0.14-0.08,0.31-0.07,0.44,0.02c1.7,1.17-0.64,2.16,0.04,3.23c0.1,0.16,0.24,0.23,0.43,0.22l3.54-0.16  c0.27-0.01,0.48,0.26,0.39,0.52c-0.71,2.02-2.14,3.28-4.3,3.77c-1.76,0.4-3.51,0.56-5.27,0.5c-0.19-0.01-0.36-0.15-0.4-0.34  c-0.62-3.02-0.99-4.26-4.09-5.36c-2.1-0.75-4.15-1.61-6.15-2.57c-0.13-0.07-0.26-0.05-0.38,0.03c-9,6.63-1.8,17.27,3.46,23.37  c5.47,6.33,10.33,12.68,10.8,21.43c0.29,5.39-1.05,10.41-4.04,15.05c-0.25,0.39,0.05,0.89,0.51,0.85c5.64-0.45,8.75,2.91,10.27,7.87  c0.03,0.09-0.04,0.19-0.14,0.19L47.76,97.5c-0.21,0-0.38-0.16-0.39-0.37l-0.08-1.35c-0.01-0.16-0.09-0.22-0.25-0.19  c-2.89,0.59-5.97,1.32-8.75,1.41c-7.12,0.23-13.49-1.77-19.09-5.99c-5.23-3.93-9.15-12.19-8.57-18.67c0.28-3.14,1.23-6.23,2.86-9.27  c4.25-7.97,13.79-12.91,7.35-22.78c-0.16-0.24-0.52-0.2-0.62,0.07l-2.45,6.6c-0.15,0.4-0.73,0.4-0.88,0  c-2.36-6.42-5.29-12.62-8.81-18.58c-0.4-0.69-0.78-1.23-1.13-1.65c-0.34-0.4-0.25-0.6,0.28-0.58c7.59,0.18,14.7,2.08,21.32,5.7  c0.48,0.26,0.48,0.52-0.02,0.75l-4.26,2.05c-0.57,0.27-0.6,0.6-0.09,0.98c5.67,4.11,8.58,9.99,7.66,17.01  c-0.62,4.72-2.33,8.14-5.04,12.8c-0.32,0.55-0.63,1.3-0.95,2.25c-1.45,4.36,2.25,5.23,5.49,5.6c0.23,0.03,0.37-0.08,0.42-0.31  l1.19-5.87c0.04-0.22,0.17-0.29,0.37-0.18l5.97,2.95c0.38,0.19,0.52,0.08,0.4-0.34c-0.6-2.19-0.98-4.41-1.15-6.67  c-0.01-0.19,0.07-0.26,0.26-0.23l7.12,1.28C46.07,63.96,46.11,63.9,46.04,63.76 M73.87,18.23c0.72,0.27,1.61,0.54,2.38,0.47  c0.36-0.03,0.53-0.47,0.27-0.74l-2.55-2.65c-0.3-0.31-0.81-0.22-0.99,0.17C72.34,16.85,72.63,17.76,73.87,18.23 M41.93,77.9  c-0.12,0.19-0.31,0.25-0.41,0.39c-0.1,0.14,0.07,0.32,0.22,0.23c5.03-2.95,12.05-4.13,16.67,0.08c2.83,2.58,3.86,6.16,3.58,9.97  c-0.03,0.37,0.46,0.53,0.66,0.22c3.01-4.81,1.37-10.89-3.1-14.24c-2.63-1.96-5.55-2.73-8.76-2.31  C46.92,72.75,43.97,74.64,41.93,77.9L41.93,77.9z"/></svg>