<svg xmlns="http://www.w3.org/2000/svg" version="1.1" viewBox="-5.0 -10.0 110.0 135.0">
 <path d="m5.0039 56.656 0.26953 19.828c3.6172 11.168 21.98 15.234 26.25 15.73 8.7969 1.0195 21.52 0.61719 32.73-0.16016 14.789-1.0273 27.59-6.543 30.75-17.512l-0.33203-16.906c-0.5-4.4141-5.3398-9.7969-11.641-11.031-2.4102-0.47266-5.8281-0.79297-8.5508-0.55078-2.6172 0.23437-5.0469 1.3477-7.7891 1.2422-4.9805-0.1875-7.4805-5.8711-21.418-7.5938-5.9727-0.73438-12.113-0.91797-18.051 0.070313-11.969 2-21.629 10.777-22.219 16.883zm4.9688 0.046875 0.41797 18.535c3.1797 8.5117 19.383 11.809 23.141 12.199 7.7422 0.80078 18.949 0.68359 28.789-0.125 12.812-1.0547 24.363-5.1797 27.133-13.805l-0.23047-13.262c0.03125-4.0547-3.3203-8.1484-8.8711-9.1211-2.1211-0.37109-6.6406-0.19141-9.0312 0-2.2969 0.18359-4.4375 1.0586-6.8477 0.97656-4.3789-0.14844-6.9414-5.7734-19.199-7.1289-5.25-0.57812-12.352-1.1172-17.531-0.11328-10.09 1.9609-16.262 7.2695-17.77 11.844zm26.59 17.148c-6.0312-0.36328-13.441-2.0547-17.852-5.3516-6.3789-4.7656-4.5898-11.207-4.5898-11.207 1.2109-4.3945 9.8828-9.7578 22.301-9.2266 7.6211 0.32422 13.879 0.87891 18.809 3.25 3.2109 1.5469 6.5117 4.0078 9.6016 3.9375 4.3398-0.10156 7.7812-1.5859 13.75-0.81641 2.6406 0.33984 6.5703 1.8438 6.7891 6.3359 0.19922 4.0508-4.3281 7.6133-9.0586 9.2969-5.4414 1.9297-11.672 2.2852-19.742 3.2734-3.7695 0.46094-14.949 0.81641-20.008 0.50781zm-1.0586-21.137c4.3398 0 7.8672 2.5508 7.8672 5.6953 0 3.1445-3.5273 5.6953-7.8672 5.6953-4.3516 0-7.8711-2.5508-7.8711-5.6953 0-3.1445 3.5195-5.6953 7.8711-5.6953zm27.668-32.004c0.019531-0.12109 0.12109-0.63281 0.23828-0.95313 0.35156-0.94141 0.93359-1.9883 1.6016-2.5938 1.1211-1.0195 1.1992-2.75 0.17969-3.8672-1.0078-1.1211-2.7383-1.2031-3.8594-0.1875-1.2383 1.1289-2.4102 3.0078-3.0508 4.7461-0.53906 1.4414-0.67969 2.8047-0.51953 3.7227 0.26172 1.5195 1.1094 3.0273 2.0391 4.3906 0.53125 0.77734 1.1406 1.4531 1.3203 2.0742 0.082031 0.26953-0.058594 0.59766-0.16797 0.94141-0.33984 1.0117-0.98047 2.0547-1.6211 2.7266-1.0391 1.0977-0.98828 2.832 0.10938 3.8672 1.1016 1.0391 2.832 0.99219 3.8711-0.10547 1.1094-1.1758 2.2578-3.0039 2.8398-4.7852 0.5-1.5156 0.57031-3.0156 0.21875-4.2109-0.26953-0.88672-0.89062-1.9141-1.6289-2.9883-0.60156-0.87109-1.3711-1.7852-1.5703-2.7773zm-24.289 0c0.019532-0.12109 0.12891-0.63281 0.23828-0.95313 0.35156-0.94141 0.94141-1.9883 1.6016-2.5938 1.1211-1.0195 1.1992-2.75 0.1875-3.8672-1.0195-1.1211-2.75-1.2031-3.8672-0.1875-1.2422 1.1289-2.4102 3.0078-3.0508 4.7461-0.53125 1.4414-0.67969 2.8047-0.51953 3.7227 0.26953 1.5195 1.1094 3.0273 2.0508 4.3906 0.51953 0.77734 1.1289 1.4531 1.3086 2.0742 0.078125 0.26953-0.058593 0.59766-0.17188 0.94141-0.32812 1.0117-0.97656 2.0547-1.6094 2.7266-1.0391 1.0977-0.98828 2.832 0.10156 3.8672 1.1016 1.0391 2.8281 0.99219 3.8711-0.10547 1.1172-1.1758 2.2578-3.0039 2.8398-4.7852 0.5-1.5156 0.57812-3.0156 0.21875-4.2109-0.26172-0.88672-0.87891-1.9141-1.6211-2.9883-0.59766-0.87109-1.3789-1.7852-1.5781-2.7773zm10.328-12.715c-1.3477 1.3672-2.6094 3.6562-3.3086 5.7656-0.53906 1.6406-0.71875 3.1875-0.55078 4.2305 0.28125 1.8281 1.2109 3.6211 2.2109 5.2656 0.66016 1.082 1.3789 2.0508 1.6094 2.9141 0.14062 0.52344-0.011719 1.168-0.21094 1.832-0.41016 1.4219-1.207 2.8828-2.0078 3.8203-0.97266 1.1562-0.83203 2.8828 0.32812 3.8594 1.1523 0.97266 2.8789 0.82812 3.8594-0.32422 1.2109-1.4336 2.4531-3.6523 3.082-5.8164 0.5-1.7266 0.60938-3.4219 0.23828-4.7812-0.27734-1.0664-0.94922-2.2852-1.75-3.5742-0.76953-1.25-1.7305-2.6016-1.957-4.043-0.0625-0.41406 0.12891-1.0117 0.34766-1.6641 0.44141-1.3242 1.1719-2.793 2.0117-3.6523 1.0586-1.0781 1.0469-2.8125-0.03125-3.8711-1.0781-1.0586-2.8203-1.0391-3.8711 0.039063z" fill-rule="evenodd"/>
<text x="0.0" y="117.5" font-size="5.0" font-weight="bold" font-family="Arbeit Regular, Helvetica, Arial-Unicode, Arial, Sans-serif" fill="#000000">Created by Kuns.paintings</text><text x="0.0" y="122.5" font-size="5.0" font-weight="bold" font-family="Arbeit Regular, Helvetica, Arial-Unicode, Arial, Sans-serif" fill="#000000">from Noun Project</text></svg>