<svg width="839" height="1572" viewBox="0 0 839 1572" fill="none" xmlns="http://www.w3.org/2000/svg">
<path fill-rule="evenodd" clip-rule="evenodd" d="M173.979 359.5V672.5H157.979V359.5H173.979Z" fill="black"/>
<path d="M245.979 368C245.979 412.183 210.162 448 165.979 448C121.796 448 85.9788 412.183 85.9788 368C85.9788 323.817 121.796 288 165.979 288C210.162 288 245.979 323.817 245.979 368Z" fill="black"/>
<path d="M221.979 537C221.979 567.928 196.907 593 165.979 593C135.051 593 109.979 567.928 109.979 537C109.979 506.072 135.051 481 165.979 481C196.907 481 221.979 506.072 221.979 537Z" fill="black"/>
<path d="M197.979 657C197.979 674.673 183.652 689 165.979 689C148.306 689 133.979 674.673 133.979 657C133.979 639.327 148.306 625 165.979 625C183.652 625 197.979 639.327 197.979 657Z" fill="black"/>
<path fill-rule="evenodd" clip-rule="evenodd" d="M656.979 359.5V672.5H640.979V359.5H656.979Z" fill="black"/>
<path d="M728.979 368C728.979 412.183 693.161 448 648.979 448C604.796 448 568.979 412.183 568.979 368C568.979 323.817 604.796 288 648.979 288C693.161 288 728.979 323.817 728.979 368Z" fill="black"/>
<path d="M704.979 537C704.979 567.928 679.906 593 648.979 593C618.051 593 592.979 567.928 592.979 537C592.979 506.072 618.051 481 648.979 481C679.906 481 704.979 506.072 704.979 537Z" fill="black"/>
<path d="M680.979 657C680.979 674.673 666.652 689 648.979 689C631.305 689 616.979 674.673 616.979 657C616.979 639.327 631.305 625 648.979 625C666.652 625 680.979 639.327 680.979 657Z" fill="black"/>
<path fill-rule="evenodd" clip-rule="evenodd" d="M310.718 719L264.278 765.439H198.926V830.792L83.9787 945.739L72.665 934.425L182.926 824.164V749.439H257.651L299.404 707.686L310.718 719Z" fill="black"/>
<path fill-rule="evenodd" clip-rule="evenodd" d="M75.9788 884H232.174V974.795H310.869V1092.05H294.869V990.795H216.174V900H75.9788V884Z" fill="black"/>
<path fill-rule="evenodd" clip-rule="evenodd" d="M229.791 986.915L76.0245 1128.8L65.1741 1117.05L218.941 975.156L229.791 986.915Z" fill="black"/>
<path fill-rule="evenodd" clip-rule="evenodd" d="M295.362 1126.74H311.362V1187.49L374.861 1235.75L291.346 1272.25L373.984 1323.8L311.362 1365.14V1415.27H295.362V1356.53L344.364 1324.18L257.111 1269.76L343.488 1232L295.362 1195.42V1126.74Z" fill="black"/>
<path d="M191.958 892C191.958 933.974 157.941 968 115.979 968C74.0169 968 40 933.974 40 892C40 850.026 74.0169 816 115.979 816C157.941 816 191.958 850.026 191.958 892Z" fill="white"/>
<path fill-rule="evenodd" clip-rule="evenodd" d="M115.979 824C78.4372 824 48 854.443 48 892C48 929.557 78.4372 960 115.979 960C153.52 960 183.958 929.557 183.958 892C183.958 854.443 153.52 824 115.979 824ZM32 892C32 845.61 69.5965 808 115.979 808C162.361 808 199.958 845.61 199.958 892C199.958 938.39 162.361 976 115.979 976C69.5965 976 32 938.39 32 892Z" fill="black"/>
<path d="M374.936 1463C374.936 1504.97 340.919 1539 298.957 1539C256.995 1539 222.979 1504.97 222.979 1463C222.979 1421.03 256.995 1387 298.957 1387C340.919 1387 374.936 1421.03 374.936 1463Z" fill="white"/>
<path fill-rule="evenodd" clip-rule="evenodd" d="M298.958 1395C261.416 1395 230.979 1425.44 230.979 1463C230.979 1500.56 261.416 1531 298.958 1531C336.499 1531 366.936 1500.56 366.936 1463C366.936 1425.44 336.499 1395 298.958 1395ZM214.979 1463C214.979 1416.61 252.575 1379 298.958 1379C345.34 1379 382.936 1416.61 382.936 1463C382.936 1509.39 345.34 1547 298.958 1547C252.575 1547 214.979 1509.39 214.979 1463Z" fill="black"/>
<path d="M339.936 712.49C339.936 734.852 321.813 752.98 299.457 752.98C277.101 752.98 258.979 734.852 258.979 712.49C258.979 690.128 277.101 672 299.457 672C321.813 672 339.936 690.128 339.936 712.49Z" fill="white"/>
<path fill-rule="evenodd" clip-rule="evenodd" d="M299.457 680C281.522 680 266.979 694.544 266.979 712.49C266.979 730.436 281.522 744.98 299.457 744.98C317.393 744.98 331.936 730.436 331.936 712.49C331.936 694.544 317.393 680 299.457 680ZM250.979 712.49C250.979 685.712 272.681 664 299.457 664C326.233 664 347.936 685.712 347.936 712.49C347.936 739.268 326.233 760.98 299.457 760.98C272.681 760.98 250.979 739.268 250.979 712.49Z" fill="black"/>
<path d="M127.936 1103.49C127.936 1125.85 109.813 1143.98 87.4575 1143.98C65.1017 1143.98 46.9788 1125.85 46.9788 1103.49C46.9788 1081.13 65.1017 1063 87.4575 1063C109.813 1063 127.936 1081.13 127.936 1103.49Z" fill="black"/>
<path fill-rule="evenodd" clip-rule="evenodd" d="M87.4575 1071C69.5221 1071 54.9788 1085.54 54.9788 1103.49C54.9788 1121.44 69.5221 1135.98 87.4575 1135.98C105.393 1135.98 119.936 1121.44 119.936 1103.49C119.936 1085.54 105.393 1071 87.4575 1071ZM38.9788 1103.49C38.9788 1076.71 60.6813 1055 87.4575 1055C114.234 1055 135.936 1076.71 135.936 1103.49C135.936 1130.27 114.234 1151.98 87.4575 1151.98C60.6813 1151.98 38.9788 1130.27 38.9788 1103.49Z" fill="black"/>
<path d="M298.979 1152.97C268.051 1152.97 242.979 1127.9 242.979 1096.98C242.979 1066.07 268.051 1041 298.979 1041C329.906 1041 354.979 1066.07 354.979 1096.98C354.979 1127.9 329.906 1152.97 298.979 1152.97Z" fill="white"/>
<path fill-rule="evenodd" clip-rule="evenodd" d="M346.979 1096.98C346.979 1070.49 325.49 1049 298.979 1049C272.467 1049 250.979 1070.49 250.979 1096.98C250.979 1123.48 272.467 1144.97 298.979 1144.97C325.49 1144.97 346.979 1123.48 346.979 1096.98ZM298.979 1033C334.323 1033 362.979 1061.64 362.979 1096.98C362.979 1132.32 334.323 1160.97 298.979 1160.97C263.634 1160.97 234.979 1132.32 234.979 1096.98C234.979 1061.64 263.634 1033 298.979 1033Z" fill="black"/>
<path fill-rule="evenodd" clip-rule="evenodd" d="M503.24 719L549.679 765.439H615.032V830.792L729.979 945.739L741.292 934.425L631.032 824.164V749.439H556.306L514.554 707.686L503.24 719Z" fill="black"/>
<path fill-rule="evenodd" clip-rule="evenodd" d="M737.979 884H581.783V974.795H503.088V1092.05H519.088V990.795H597.783V900H737.979V884Z" fill="black"/>
<path fill-rule="evenodd" clip-rule="evenodd" d="M584.166 986.915L737.933 1128.8L748.783 1117.05L595.017 975.156L584.166 986.915Z" fill="black"/>
<path fill-rule="evenodd" clip-rule="evenodd" d="M518.595 1126.74H502.595V1187.49L439.097 1235.75L522.611 1272.25L439.974 1323.8L502.595 1365.14V1415.27H518.595V1356.53L469.593 1324.18L556.846 1269.76L470.47 1232L518.595 1195.42V1126.74Z" fill="black"/>
<path d="M622 892C622 933.974 656.017 968 697.979 968C739.941 968 773.958 933.974 773.958 892C773.958 850.026 739.941 816 697.979 816C656.017 816 622 850.026 622 892Z" fill="white"/>
<path fill-rule="evenodd" clip-rule="evenodd" d="M697.979 824C735.521 824 765.958 854.443 765.958 892C765.958 929.557 735.521 960 697.979 960C660.438 960 630 929.557 630 892C630 854.443 660.438 824 697.979 824ZM781.958 892C781.958 845.61 744.362 808 697.979 808C651.597 808 614 845.61 614 892C614 938.39 651.597 976 697.979 976C744.362 976 781.958 938.39 781.958 892Z" fill="black"/>
<path d="M439.021 1463C439.021 1504.97 473.038 1539 515 1539C556.962 1539 590.979 1504.97 590.979 1463C590.979 1421.03 556.962 1387 515 1387C473.038 1387 439.021 1421.03 439.021 1463Z" fill="white"/>
<path fill-rule="evenodd" clip-rule="evenodd" d="M515 1395C552.541 1395 582.979 1425.44 582.979 1463C582.979 1500.56 552.541 1531 515 1531C477.458 1531 447.021 1500.56 447.021 1463C447.021 1425.44 477.458 1395 515 1395ZM598.979 1463C598.979 1416.61 561.382 1379 515 1379C468.617 1379 431.021 1416.61 431.021 1463C431.021 1509.39 468.617 1547 515 1547C561.382 1547 598.979 1509.39 598.979 1463Z" fill="black"/>
<path d="M474.021 712.49C474.021 734.852 492.144 752.98 514.5 752.98C536.856 752.98 554.979 734.852 554.979 712.49C554.979 690.128 536.856 672 514.5 672C492.144 672 474.021 690.128 474.021 712.49Z" fill="white"/>
<path fill-rule="evenodd" clip-rule="evenodd" d="M514.5 680C532.435 680 546.979 694.544 546.979 712.49C546.979 730.436 532.435 744.98 514.5 744.98C496.564 744.98 482.021 730.436 482.021 712.49C482.021 694.544 496.564 680 514.5 680ZM562.979 712.49C562.979 685.712 541.276 664 514.5 664C487.724 664 466.021 685.712 466.021 712.49C466.021 739.268 487.724 760.98 514.5 760.98C541.276 760.98 562.979 739.268 562.979 712.49Z" fill="black"/>
<path d="M686.021 1103.49C686.021 1125.85 704.144 1143.98 726.5 1143.98C748.856 1143.98 766.979 1125.85 766.979 1103.49C766.979 1081.13 748.856 1063 726.5 1063C704.144 1063 686.021 1081.13 686.021 1103.49Z" fill="black"/>
<path fill-rule="evenodd" clip-rule="evenodd" d="M726.5 1071C744.435 1071 758.979 1085.54 758.979 1103.49C758.979 1121.44 744.435 1135.98 726.5 1135.98C708.564 1135.98 694.021 1121.44 694.021 1103.49C694.021 1085.54 708.564 1071 726.5 1071ZM774.979 1103.49C774.979 1076.71 753.276 1055 726.5 1055C699.724 1055 678.021 1076.71 678.021 1103.49C678.021 1130.27 699.724 1151.98 726.5 1151.98C753.276 1151.98 774.979 1130.27 774.979 1103.49Z" fill="black"/>
<path d="M514.979 1152.97C545.906 1152.97 570.979 1127.9 570.979 1096.98C570.979 1066.07 545.906 1041 514.979 1041C484.051 1041 458.979 1066.07 458.979 1096.98C458.979 1127.9 484.051 1152.97 514.979 1152.97Z" fill="white"/>
<path fill-rule="evenodd" clip-rule="evenodd" d="M466.979 1096.98C466.979 1070.49 488.467 1049 514.979 1049C541.49 1049 562.979 1070.49 562.979 1096.98C562.979 1123.48 541.49 1144.97 514.979 1144.97C488.467 1144.97 466.979 1123.48 466.979 1096.98ZM514.979 1033C479.634 1033 450.979 1061.64 450.979 1096.98C450.979 1132.32 479.634 1160.97 514.979 1160.97C550.323 1160.97 578.979 1132.32 578.979 1096.98C578.979 1061.64 550.323 1033 514.979 1033Z" fill="black"/>
<path fill-rule="evenodd" clip-rule="evenodd" d="M398.979 877V74H414.979V877H398.979Z" fill="black"/>
<path d="M326.979 574C326.979 529.817 362.796 494 406.979 494C451.161 494 486.979 529.817 486.979 574C486.979 618.183 451.161 654 406.979 654C362.796 654 326.979 618.183 326.979 574Z" fill="white"/>
<path fill-rule="evenodd" clip-rule="evenodd" d="M310.979 574C310.979 520.981 353.959 478 406.979 478C459.998 478 502.979 520.981 502.979 574C502.979 627.019 459.998 670 406.979 670C353.959 670 310.979 627.019 310.979 574ZM406.979 494C362.796 494 326.979 529.817 326.979 574C326.979 618.183 362.796 654 406.979 654C451.161 654 486.979 618.183 486.979 574C486.979 529.817 451.161 494 406.979 494Z" fill="black"/>
<path d="M362.979 333.5C362.979 308.923 382.902 289 407.479 289C432.055 289 451.979 308.923 451.979 333.5C451.979 358.077 432.055 378 407.479 378C382.902 378 362.979 358.077 362.979 333.5Z" fill="white"/>
<path fill-rule="evenodd" clip-rule="evenodd" d="M346.979 333.5C346.979 300.087 374.065 273 407.479 273C440.892 273 467.979 300.087 467.979 333.5C467.979 366.913 440.892 394 407.479 394C374.065 394 346.979 366.913 346.979 333.5ZM407.479 289C382.902 289 362.979 308.923 362.979 333.5C362.979 358.077 382.902 378 407.479 378C432.055 378 451.979 358.077 451.979 333.5C451.979 308.923 432.055 289 407.479 289Z" fill="black"/>
<path d="M350.979 869C350.979 838.072 376.051 813 406.979 813C437.906 813 462.979 838.072 462.979 869C462.979 899.928 437.906 925 406.979 925C376.051 925 350.979 899.928 350.979 869Z" fill="black"/>
<path fill-rule="evenodd" clip-rule="evenodd" d="M625.995 299.314L550.165 223.484H264.776L188.946 299.314L177.633 288L257.963 207.67L258.458 208.165V207.484H556.479V208.17L556.979 207.67L637.309 288L625.995 299.314Z" fill="black"/>
<path fill-rule="evenodd" clip-rule="evenodd" d="M341.979 66H473.979V82H341.979V66Z" fill="black"/>
<path d="M562.469 74.7566C562.469 97.2658 544.227 115.513 521.724 115.513C499.221 115.513 480.979 97.2658 480.979 74.7566C480.979 52.2473 499.221 34 521.724 34C544.227 34 562.469 52.2473 562.469 74.7566Z" fill="white"/>
<path fill-rule="evenodd" clip-rule="evenodd" d="M521.724 42C503.641 42 488.979 56.6635 488.979 74.7566C488.979 92.8496 503.641 107.513 521.724 107.513C539.806 107.513 554.469 92.8496 554.469 74.7566C554.469 56.6635 539.806 42 521.724 42ZM472.979 74.7566C472.979 47.8312 494.8 26 521.724 26C548.647 26 570.469 47.8312 570.469 74.7566C570.469 101.682 548.647 123.513 521.724 123.513C494.8 123.513 472.979 101.682 472.979 74.7566Z" fill="black"/>
<path d="M334.469 73.7566C334.469 96.2658 316.227 114.513 293.724 114.513C271.221 114.513 252.979 96.2658 252.979 73.7566C252.979 51.2473 271.221 33 293.724 33C316.227 33 334.469 51.2473 334.469 73.7566Z" fill="white"/>
<path fill-rule="evenodd" clip-rule="evenodd" d="M293.724 41C275.641 41 260.979 55.6635 260.979 73.7566C260.979 91.8496 275.641 106.513 293.724 106.513C311.806 106.513 326.469 91.8496 326.469 73.7566C326.469 55.6635 311.806 41 293.724 41ZM244.979 73.7566C244.979 46.8312 266.8 25 293.724 25C320.647 25 342.469 46.8312 342.469 73.7566C342.469 100.682 320.647 122.513 293.724 122.513C266.8 122.513 244.979 100.682 244.979 73.7566Z" fill="black"/>
<path fill-rule="evenodd" clip-rule="evenodd" d="M340.979 206H472.979V222H340.979V206Z" fill="black"/>
<path d="M561.469 214.757C561.469 237.266 543.227 255.513 520.724 255.513C498.221 255.513 479.979 237.266 479.979 214.757C479.979 192.247 498.221 174 520.724 174C543.227 174 561.469 192.247 561.469 214.757Z" fill="white"/>
<path fill-rule="evenodd" clip-rule="evenodd" d="M520.724 182C502.641 182 487.979 196.664 487.979 214.757C487.979 232.85 502.641 247.513 520.724 247.513C538.806 247.513 553.469 232.85 553.469 214.757C553.469 196.664 538.806 182 520.724 182ZM471.979 214.757C471.979 187.831 493.8 166 520.724 166C547.647 166 569.469 187.831 569.469 214.757C569.469 241.682 547.647 263.513 520.724 263.513C493.8 263.513 471.979 241.682 471.979 214.757Z" fill="black"/>
<path d="M333.469 213.757C333.469 236.266 315.227 254.513 292.724 254.513C270.221 254.513 251.979 236.266 251.979 213.757C251.979 191.247 270.221 173 292.724 173C315.227 173 333.469 191.247 333.469 213.757Z" fill="white"/>
<path fill-rule="evenodd" clip-rule="evenodd" d="M292.724 181C274.641 181 259.979 195.664 259.979 213.757C259.979 231.85 274.641 246.513 292.724 246.513C310.806 246.513 325.469 231.85 325.469 213.757C325.469 195.664 310.806 181 292.724 181ZM243.979 213.757C243.979 186.831 265.8 165 292.724 165C319.647 165 341.469 186.831 341.469 213.757C341.469 240.682 319.647 262.513 292.724 262.513C265.8 262.513 243.979 240.682 243.979 213.757Z" fill="black"/>
</svg>
